<svg xmlns="http://www.w3.org/2000/svg" viewBox="0 0 267.19 224.05"><defs><style>.cls-1{fill:#384e02;}.cls-2{fill:#2698c3;}.cls-3{fill:#464237;}</style></defs><title>Meyer - WRI - Horizontal</title><g id="Layer_2" data-name="Layer 2"><g id="Black"><path class="cls-1" d="M90.51,11.47h-.29s-4.09-.6-6.92,4.63c-4.33,8-7.6,37.69-16.51,42.23l23-.07s4.85-1.45,7.67-13.55c.91-3.93,2.36-8.47,3.68-12.88C99.09,19.67,95,13.05,90.51,11.47Z"/><path class="cls-1" d="M147.76,0h-.89s-4.53-.59-7.67,4.63c-4.79,8-9.11,50.63-18.69,53.58l25.87,0s5.38-1.45,8.5-13.55c1.15-4.49,2.68-11.2,4.41-18.06C156.35,14,152.76,1.64,147.76,0Z"/><path class="cls-1" d="M198.24,42.77s-9.49,14.08-17.53,15.49h23.71a9.87,9.87,0,0,0,7.14-3.92c.76-1,5.66-7.34,8.59-11.57H198.24"/><path class="cls-2" d="M176.43,57.88c6.49-.93,14.16-9,17.18-13-3.18-10.24-6.92-23.9-8.83-31.32C181.68,1.44,176.29,0,176.29,0H150.85c9,5.26,10.75,35.39,17.41,53.61C170.32,59.26,176.43,57.88,176.43,57.88Z"/><path class="cls-2" d="M128.12,38c-1.3-4.34-2.86-9.14-3.76-13-2.8-12.1-7.66-13.55-7.66-13.55H93.46c9.08,2.65,11.3,33.79,16.75,42.16,3.24,5,6.92,4.63,6.92,4.63h.55C121.87,56.88,125.23,48.31,128.12,38Z"/><path class="cls-2" d="M72.2,45.23H50.14C53.5,54.12,60.33,58,63.39,58.33,66.67,57.11,70,51.76,72.2,45.23Z"/><path class="cls-3" d="M65.18,129.19a.77.77,0,0,1-.78-.77v-5.6l-2.3,2.34s-.39.44-.68.44-.68-.44-.68-.44l-2.34-2.34v5.58a.78.78,0,1,1-1.56,0v-7.69a.76.76,0,0,1,.77-.77c.37,0,.73.49.73.49l3.08,3.27,3-3.27s.4-.49.72-.49a.73.73,0,0,1,.78.78v7.7A.76.76,0,0,1,65.18,129.19Z"/><path class="cls-3" d="M89,129.19a.77.77,0,0,1-.77-.77v-5.6l-2.31,2.34s-.38.44-.68.44-.68-.44-.68-.44l-2.34-2.34v5.58a.78.78,0,1,1-1.56,0v-7.69a.76.76,0,0,1,.77-.77c.36,0,.74.49.74.49l3.06,3.27,3-3.27s.39-.49.72-.49a.74.74,0,0,1,.79.78v7.7A.76.76,0,0,1,89,129.19Z"/><path class="cls-3" d="M76.26,129.09H71.17a.83.83,0,0,1-.84-.83v-7.39a.83.83,0,0,1,.84-.83h4.89a.76.76,0,0,1,.78.76.77.77,0,0,1-.78.77H72v2.16h2.24a.77.77,0,0,1,.77.78.76.76,0,0,1-.77.76H72v2.28h4.27a.78.78,0,0,1,.79.77A.77.77,0,0,1,76.26,129.09Z"/><path class="cls-3" d="M98.23,129.25a4.69,4.69,0,1,1,4.65-4.69A4.59,4.59,0,0,1,98.23,129.25Zm0-7.88a3.2,3.2,0,1,0,3,3.19A3,3,0,0,0,98.23,121.37Z"/><path class="cls-3" d="M114.25,128.37a.82.82,0,0,1-.83.83.74.74,0,0,1-.73-.45l-1.58-3.27h-2.73v2.89a.83.83,0,0,1-1.66,0v-7.49a.82.82,0,0,1,.83-.83H111c2.26,0,3.22,1.12,3.22,2.72a2.47,2.47,0,0,1-1.5,2.42l1.4,2.84A.89.89,0,0,1,114.25,128.37Zm-3-6.8h-2.89V124h2.89a1.24,1.24,0,0,0,1.32-1.28A1.2,1.2,0,0,0,111.26,121.57Z"/><path class="cls-3" d="M119.15,129.19a.84.84,0,0,1-.84-.84v-7.57a.84.84,0,0,1,.84-.84.82.82,0,0,1,.81.84v7.57A.82.82,0,0,1,119.15,129.19Z"/><path class="cls-3" d="M129.72,127.09h-4l-.77,1.66a.72.72,0,0,1-.69.45.77.77,0,0,1-.79-.77.7.7,0,0,1,.08-.32l3.48-7.73a.71.71,0,0,1,.71-.43.69.69,0,0,1,.7.43l3.48,7.73a.67.67,0,0,1,.08.32.76.76,0,0,1-.78.77.71.71,0,0,1-.69-.45Zm-2-4.9-1.41,3.45h2.83Z"/><path class="cls-3" d="M136.29,129.09a.85.85,0,0,1-.84-.84v-7.46a.85.85,0,0,1,.84-.84.82.82,0,0,1,.82.84v6.75h4a.78.78,0,0,1,.78.77.8.8,0,0,1-.78.79Z"/><path class="cls-3" d="M157.54,121.6h-2.32v6.75a.84.84,0,0,1-.84.84.82.82,0,0,1-.81-.84V121.6h-2.34a.78.78,0,1,1,0-1.56h6.31a.79.79,0,0,1,.79.79A.78.78,0,0,1,157.54,121.6Z"/><path class="cls-3" d="M169.25,128.37a.82.82,0,0,1-.83.83.74.74,0,0,1-.74-.45l-1.59-3.27h-2.73v2.89a.83.83,0,1,1-1.65,0v-7.49a.82.82,0,0,1,.82-.83H166c2.25,0,3.21,1.12,3.21,2.72a2.47,2.47,0,0,1-1.49,2.42l1.4,2.84A.85.85,0,0,1,169.25,128.37Zm-3-6.8h-2.89V124h2.89a1.24,1.24,0,0,0,1.32-1.28A1.2,1.2,0,0,0,166.26,121.57Z"/><path class="cls-3" d="M179.23,120.78a.83.83,0,1,1,1.66,0v4.66a3.87,3.87,0,0,1-7.75,0v-4.66a.83.83,0,1,1,1.66,0v4.83a2.21,2.21,0,0,0,4.42,0Z"/><path class="cls-3" d="M188.3,129.25a5.42,5.42,0,0,1-3.14-1,1,1,0,0,1-.46-.79.66.66,0,0,1,.69-.71.83.83,0,0,1,.43.12,3.9,3.9,0,0,0,2.51.86c1.29,0,1.81-.52,1.81-1.14s-.52-1-2.16-1.44c-2.45-.65-3.19-1.44-3.19-2.8,0-1.65,1.43-2.54,3.58-2.54a6.94,6.94,0,0,1,1.74.25c.63.17,1.41.56,1.41,1.11a.69.69,0,0,1-.68.75.78.78,0,0,1-.33-.07,4.79,4.79,0,0,0-2.13-.57c-1.21,0-1.94.33-1.94,1s.54.9,2.17,1.37c1.86.54,3.18,1.08,3.18,2.81C191.8,128.14,190.6,129.25,188.3,129.25Z"/><path class="cls-3" d="M201.91,121.6h-2.33v6.75a.84.84,0,0,1-.84.84.82.82,0,0,1-.81-.84V121.6H195.6a.78.78,0,1,1,0-1.56h6.32a.79.79,0,0,1,.78.79A.77.77,0,0,1,201.91,121.6Z"/><path class="cls-3" d="M100.64,104.48a1.84,1.84,0,0,1-3.69,0V90.83c0-5.53-2.09-9-7.81-9-5.23,0-8.51,3.81-8.51,9.84v12.85a1.85,1.85,0,0,1-3.69,0V90.83c0-5.53-2.51-9-8.22-9-5.23,0-8.18,3.81-8.18,9.84v12.85a1.84,1.84,0,0,1-3.69,0v-24a1.84,1.84,0,1,1,3.69,0v3.2c2-3.38,4.49-5.29,9-5.29a10.52,10.52,0,0,1,10,6.21c2.58-4.49,5.74-6.21,10.48-6.21,7.13,0,10.7,5.23,10.7,12.36Z"/><path class="cls-3" d="M133.13,92.18a1.56,1.56,0,0,1-1.54,1.54H110.25a10,10,0,0,0,10.33,9.72,10.27,10.27,0,0,0,8.36-3.87,1.83,1.83,0,0,1,1.41-.8,1.48,1.48,0,0,1,1.53,1.54,1.84,1.84,0,0,1-.37,1.11,13.51,13.51,0,0,1-10.95,5.17c-8.79,0-14.08-6.64-14.08-14.08s5.6-14.08,13.71-14.08C127.78,78.41,133.13,84.31,133.13,92.18Zm-12.91-10.7a9.88,9.88,0,0,0-9.84,9.16h19.37C129.25,85.48,125.5,81.48,120.21,81.48Z"/><path class="cls-3" d="M160.64,81.11S154.82,96,151.6,103c-2.62,5.72-4.76,10-10.23,13.26a2,2,0,0,1-1.11.31,1.5,1.5,0,0,1-1.6-1.54c0-.68.37-1.11,1.11-1.54,3.38-2.34,4.39-3.61,6.85-7.85L136.16,81.23a2.6,2.6,0,0,1-.24-.92,1.63,1.63,0,0,1,1.72-1.66,1.59,1.59,0,0,1,1.6,1.17l9.28,21.89,9.1-22a1.5,1.5,0,0,1,1.53-1,1.58,1.58,0,0,1,1.66,1.66A2.14,2.14,0,0,1,160.64,81.11Z"/><path class="cls-3" d="M190,92.18a1.57,1.57,0,0,1-1.54,1.54H167.14a10,10,0,0,0,10.34,9.72,10.28,10.28,0,0,0,8.36-3.87,1.83,1.83,0,0,1,1.41-.8,1.48,1.48,0,0,1,1.54,1.54,1.87,1.87,0,0,1-.37,1.11,13.51,13.51,0,0,1-10.95,5.17c-8.79,0-14.09-6.64-14.09-14.08S169,78.41,177.1,78.41C184.67,78.41,190,84.31,190,92.18ZM177.1,81.48a9.87,9.87,0,0,0-9.84,9.16h19.37C186.14,85.48,182.39,81.48,177.1,81.48Z"/><path class="cls-3" d="M211.75,80.63c-5.45,0-11,5.83-11,12.93v11a1.91,1.91,0,0,1-1.9,1.9,2,2,0,0,1-1.9-1.9V79.8a1.9,1.9,0,1,1,3.8,0v4.44c1.2-3.61,6.51-7,11-7a1.69,1.69,0,1,1,0,3.36Z"/><path class="cls-3" d="M16,190.86l3.67-10.38a1.28,1.28,0,0,1,1.31-1,1.31,1.31,0,0,1,1.36,1.38,1.37,1.37,0,0,1-.07.41l-4.93,13.85a1.44,1.44,0,0,1-2.67,0l-3.48-10.5-3.48,10.5a1.32,1.32,0,0,1-1.31.9A1.33,1.33,0,0,1,5,195.16L.07,181.31a1.37,1.37,0,0,1-.07-.41,1.31,1.31,0,0,1,1.36-1.38,1.28,1.28,0,0,1,1.31,1l3.67,10.38,3.5-10.4a1.3,1.3,0,0,1,1.31-.95,1.3,1.3,0,0,1,1.31.95Z"/><path class="cls-3" d="M28.64,196.09a1.51,1.51,0,0,1-1.51-1.51V181a1.51,1.51,0,0,1,1.51-1.51A1.47,1.47,0,0,1,30.1,181v13.56A1.47,1.47,0,0,1,28.64,196.09Z"/><path class="cls-3" d="M38,195.89a1.51,1.51,0,0,1-1.51-1.51V181A1.51,1.51,0,0,1,38,179.51,1.47,1.47,0,0,1,39.47,181V193.1h7.1A1.38,1.38,0,0,1,48,194.48a1.42,1.42,0,0,1-1.38,1.41Z"/><path class="cls-3" d="M54.12,195.89a1.51,1.51,0,0,1-1.51-1.51V181a1.51,1.51,0,0,1,1.51-1.51A1.47,1.47,0,0,1,55.57,181V193.1h7.1a1.38,1.38,0,0,1,1.39,1.38,1.42,1.42,0,0,1-1.39,1.41Z"/><path class="cls-3" d="M79.38,192.32h-7.2l-1.38,3a1.31,1.31,0,0,1-1.24.8,1.37,1.37,0,0,1-1.41-1.39,1.29,1.29,0,0,1,.15-.58l6.22-13.83a1.28,1.28,0,0,1,1.26-.78,1.25,1.25,0,0,1,1.26.78l6.22,13.83a1.3,1.3,0,0,1,.15.58A1.37,1.37,0,0,1,82,196.09a1.28,1.28,0,0,1-1.24-.8Zm-3.6-8.77-2.53,6.17h5.06Z"/><path class="cls-3" d="M103.13,196.09a1.38,1.38,0,0,1-1.39-1.39v-8.09l-4.13,8.7a1.29,1.29,0,0,1-1.22.78,1.23,1.23,0,0,1-1.21-.78L91,186.61v8.07a1.4,1.4,0,1,1-2.79,0V180.89a1.37,1.37,0,0,1,1.39-1.38,1.45,1.45,0,0,1,1.31.88l5.49,11.4,5.45-11.4a1.43,1.43,0,0,1,1.29-.87,1.33,1.33,0,0,1,1.41,1.41V194.7A1.38,1.38,0,0,1,103.13,196.09Z"/><path class="cls-3" d="M121.57,195.89h-9.12a1.49,1.49,0,0,1-1.51-1.48V181.19a1.49,1.49,0,0,1,1.51-1.48h8.75a1.37,1.37,0,0,1,1.41,1.36,1.39,1.39,0,0,1-1.41,1.38h-7.29v3.87h4a1.39,1.39,0,0,1,1.39,1.39,1.37,1.37,0,0,1-1.39,1.36h-4v4.08h7.66a1.39,1.39,0,0,1,1.41,1.39A1.37,1.37,0,0,1,121.57,195.89Z"/><path class="cls-3" d="M139.53,182.5h-4.16v12.08a1.51,1.51,0,0,1-1.51,1.51,1.47,1.47,0,0,1-1.46-1.51V182.5h-4.18a1.4,1.4,0,1,1,0-2.79h11.3a1.41,1.41,0,0,1,1.41,1.41A1.39,1.39,0,0,1,139.53,182.5Z"/><path class="cls-3" d="M157.57,182.5h-4.16v12.08a1.51,1.51,0,0,1-1.51,1.51,1.47,1.47,0,0,1-1.46-1.51V182.5h-4.18a1.4,1.4,0,1,1,0-2.79h11.3a1.41,1.41,0,0,1,1.41,1.41A1.39,1.39,0,0,1,157.57,182.5Z"/><path class="cls-3" d="M174.24,195.89h-9.12a1.49,1.49,0,0,1-1.51-1.48V181.19a1.49,1.49,0,0,1,1.51-1.48h8.75a1.37,1.37,0,0,1,1.41,1.36,1.39,1.39,0,0,1-1.41,1.38h-7.29v3.87h4A1.39,1.39,0,0,1,172,187.7a1.37,1.37,0,0,1-1.39,1.36h-4v4.08h7.66a1.39,1.39,0,0,1,1.41,1.39A1.37,1.37,0,0,1,174.24,195.89Z"/><path class="cls-3" d="M203.73,194.6a1.47,1.47,0,0,1-1.48,1.48,1.33,1.33,0,0,1-1.31-.8l-2.84-5.86h-4.89v5.18a1.48,1.48,0,0,1-3,0V181.19a1.47,1.47,0,0,1,1.48-1.48H198c4,0,5.76,2,5.76,4.86a4.42,4.42,0,0,1-2.67,4.33l2.5,5.08A1.44,1.44,0,0,1,203.73,194.6Zm-5.35-12.18h-5.18v4.45h5.18a2.22,2.22,0,0,0,2.36-2.29A2.15,2.15,0,0,0,198.38,182.43Z"/><path class="cls-3" d="M211.08,196.09a1.51,1.51,0,0,1-1.51-1.51V181a1.51,1.51,0,0,1,1.51-1.51,1.47,1.47,0,0,1,1.46,1.51v13.56A1.47,1.47,0,0,1,211.08,196.09Z"/><path class="cls-3" d="M232,181.48l-6,13.81a1.4,1.4,0,0,1-1.26.8,1.34,1.34,0,0,1-1.26-.8l-6-13.81a1.44,1.44,0,0,1-.12-.56,1.42,1.42,0,0,1,1.36-1.41,1.39,1.39,0,0,1,1.29.8l4.74,11.3,4.79-11.3a1.36,1.36,0,0,1,1.24-.8,1.39,1.39,0,0,1,1.39,1.38A1.66,1.66,0,0,1,232,181.48Z"/><path class="cls-3" d="M247.4,195.89h-9.12a1.49,1.49,0,0,1-1.51-1.48V181.19a1.49,1.49,0,0,1,1.51-1.48H247a1.37,1.37,0,0,1,1.41,1.36,1.39,1.39,0,0,1-1.41,1.38h-7.29v3.87h4a1.39,1.39,0,0,1,1.39,1.39,1.37,1.37,0,0,1-1.39,1.36h-4v4.08h7.66a1.39,1.39,0,0,1,1.41,1.39A1.37,1.37,0,0,1,247.4,195.89Z"/><path class="cls-3" d="M267.19,194.6a1.47,1.47,0,0,1-1.48,1.48,1.33,1.33,0,0,1-1.31-.8l-2.84-5.86h-4.89v5.18a1.48,1.48,0,0,1-3,0V181.19a1.47,1.47,0,0,1,1.48-1.48h6.25c4,0,5.76,2,5.76,4.86a4.42,4.42,0,0,1-2.67,4.33L267,194A1.44,1.44,0,0,1,267.19,194.6Zm-5.35-12.18h-5.18v4.45h5.18a2.22,2.22,0,0,0,2.36-2.29A2.15,2.15,0,0,0,261.85,182.43Z"/><path class="cls-3" d="M66.93,224a1.51,1.51,0,0,1-1.51-1.51V209a1.51,1.51,0,0,1,1.51-1.51A1.47,1.47,0,0,1,68.38,209v13.56A1.47,1.47,0,0,1,66.93,224Z"/><path class="cls-3" d="M87,224a1.27,1.27,0,0,1-1.07-.51l-8.39-10.6v9.72a1.4,1.4,0,0,1-2.79,0V208.88a1.39,1.39,0,0,1,1.46-1.41,1.35,1.35,0,0,1,1,.51l8.39,10.6v-9.7A1.37,1.37,0,0,1,87,207.47a1.39,1.39,0,0,1,1.41,1.41v13.78A1.38,1.38,0,0,1,87,224Z"/><path class="cls-3" d="M96.41,224a1.51,1.51,0,0,1-1.51-1.51V209a1.51,1.51,0,0,1,1.51-1.51A1.47,1.47,0,0,1,97.87,209v13.56A1.47,1.47,0,0,1,96.41,224Z"/><path class="cls-3" d="M115.24,210.46h-4.16v12.08a1.51,1.51,0,0,1-1.51,1.51,1.47,1.47,0,0,1-1.46-1.51V210.46h-4.18a1.4,1.4,0,1,1,0-2.79h11.3a1.41,1.41,0,0,1,1.41,1.41A1.39,1.39,0,0,1,115.24,210.46Z"/><path class="cls-3" d="M122.85,224a1.51,1.51,0,0,1-1.51-1.51V209a1.51,1.51,0,0,1,1.51-1.51A1.47,1.47,0,0,1,124.3,209v13.56A1.47,1.47,0,0,1,122.85,224Z"/><path class="cls-3" d="M140.34,220.28h-7.2l-1.39,3a1.31,1.31,0,0,1-1.24.8,1.37,1.37,0,0,1-1.41-1.39,1.29,1.29,0,0,1,.15-.58l6.22-13.83a1.28,1.28,0,0,1,1.26-.78,1.25,1.25,0,0,1,1.26.78l6.22,13.83a1.29,1.29,0,0,1,.15.58A1.37,1.37,0,0,1,143,224a1.28,1.28,0,0,1-1.24-.8Zm-3.6-8.77-2.53,6.17h5.06Z"/><path class="cls-3" d="M158.46,210.46H154.3v12.08a1.51,1.51,0,0,1-1.51,1.51,1.47,1.47,0,0,1-1.46-1.51V210.46h-4.18a1.4,1.4,0,1,1,0-2.79h11.3a1.41,1.41,0,0,1,1.41,1.41A1.39,1.39,0,0,1,158.46,210.46Z"/><path class="cls-3" d="M166.07,224a1.51,1.51,0,0,1-1.51-1.51V209a1.51,1.51,0,0,1,1.51-1.51,1.47,1.47,0,0,1,1.46,1.51v13.56A1.47,1.47,0,0,1,166.07,224Z"/><path class="cls-3" d="M186.93,209.44l-6,13.81a1.4,1.4,0,0,1-1.26.8,1.33,1.33,0,0,1-1.26-.8l-6-13.81a1.43,1.43,0,0,1-.12-.56,1.42,1.42,0,0,1,1.36-1.41,1.39,1.39,0,0,1,1.29.8l4.74,11.3,4.79-11.3a1.36,1.36,0,0,1,1.24-.8,1.39,1.39,0,0,1,1.39,1.38A1.66,1.66,0,0,1,186.93,209.44Z"/><path class="cls-3" d="M202.38,223.85h-9.12a1.49,1.49,0,0,1-1.51-1.48V209.15a1.49,1.49,0,0,1,1.51-1.48H202a1.37,1.37,0,0,1,1.41,1.36,1.39,1.39,0,0,1-1.41,1.38h-7.29v3.87h4a1.39,1.39,0,0,1,1.39,1.39,1.37,1.37,0,0,1-1.39,1.36h-4v4.08h7.66a1.39,1.39,0,0,1,1.41,1.39A1.37,1.37,0,0,1,202.38,223.85Z"/><path class="cls-3" d="M54.22,155.09a2,2,0,0,1,2-2h158a2,2,0,0,1,2,2h0a2,2,0,0,1-2,2h-158a2,2,0,0,1-2-2Z"/></g></g></svg>