<?xml version="1.0" encoding="UTF-8"?>
<svg width="1536px" height="1536px" viewBox="0 0 1536 1536" version="1.1" xmlns="http://www.w3.org/2000/svg" xmlns:xlink="http://www.w3.org/1999/xlink">
    <!-- Generator: Sketch 46.2 (44496) - http://www.bohemiancoding.com/sketch -->
    <title>Shape</title>
    <desc>Created with Sketch.</desc>
    <defs></defs>
    <g id="Page-1" stroke="none" stroke-width="1" fill="none" fill-rule="evenodd">
        <g id="instagram" fill-rule="nonzero" fill="#000000">
            <path d="M1024,768 C1024,697.333333 999,637 949,587 C899,537 838.666667,512 768,512 C697.333333,512 637,537 587,587 C537,637 512,697.333333 512,768 C512,838.666667 537,899 587,949 C637,999 697.333333,1024 768,1024 C838.666667,1024 899,999 949,949 C999,899 1024,838.666667 1024,768 Z M1162,768 C1162,877.333333 1123.66667,970.333333 1047,1047 C970.333333,1123.66667 877.333333,1162 768,1162 C658.666667,1162 565.666667,1123.66667 489,1047 C412.333333,970.333333 374,877.333333 374,768 C374,658.666667 412.333333,565.666667 489,489 C565.666667,412.333333 658.666667,374 768,374 C877.333333,374 970.333333,412.333333 1047,489 C1123.66667,565.666667 1162,658.666667 1162,768 Z M1270,358 C1270,383.333333 1261,405 1243,423 C1225,441 1203.33333,450 1178,450 C1152.66667,450 1131,441 1113,423 C1095,405 1086,383.333333 1086,358 C1086,332.666667 1095,311 1113,293 C1131,275 1152.66667,266 1178,266 C1203.33333,266 1225,275 1243,293 C1261,311 1270,332.666667 1270,358 Z M768,138 C763.333333,138 737.833333,137.833333 691.5,137.5 C645.166667,137.166667 610,137.166667 586,137.5 C562,137.833333 529.833333,138.833333 489.5,140.5 C449.166667,142.166667 414.833333,145.5 386.5,150.5 C358.166667,155.5 334.333333,161.666667 315,169 C281.666667,182.333333 252.333333,201.666667 227,227 C201.666667,252.333333 182.333333,281.666667 169,315 C161.666667,334.333333 155.5,358.166667 150.5,386.5 C145.5,414.833333 142.166667,449.166667 140.5,489.5 C138.833333,529.833333 137.833333,562 137.5,586 C137.166667,610 137.166667,645.166667 137.5,691.5 C137.833333,737.833333 138,763.333333 138,768 C138,772.666667 137.833333,798.166667 137.5,844.5 C137.166667,890.833333 137.166667,926 137.5,950 C137.833333,974 138.833333,1006.16667 140.5,1046.5 C142.166667,1086.83333 145.5,1121.16667 150.5,1149.5 C155.5,1177.83333 161.666667,1201.66667 169,1221 C182.333333,1254.33333 201.666667,1283.66667 227,1309 C252.333333,1334.33333 281.666667,1353.66667 315,1367 C334.333333,1374.33333 358.166667,1380.5 386.5,1385.5 C414.833333,1390.5 449.166667,1393.83333 489.5,1395.5 C529.833333,1397.16667 562,1398.16667 586,1398.5 C610,1398.83333 645.166667,1398.83333 691.5,1398.5 C737.833333,1398.16667 763.333333,1398 768,1398 C772.666667,1398 798.166667,1398.16667 844.5,1398.5 C890.833333,1398.83333 926,1398.83333 950,1398.5 C974,1398.16667 1006.16667,1397.16667 1046.5,1395.5 C1086.83333,1393.83333 1121.16667,1390.5 1149.5,1385.5 C1177.83333,1380.5 1201.66667,1374.33333 1221,1367 C1254.33333,1353.66667 1283.66667,1334.33333 1309,1309 C1334.33333,1283.66667 1353.66667,1254.33333 1367,1221 C1374.33333,1201.66667 1380.5,1177.83333 1385.5,1149.5 C1390.5,1121.16667 1393.83333,1086.83333 1395.5,1046.5 C1397.16667,1006.16667 1398.16667,974 1398.5,950 C1398.83333,926 1398.83333,890.833333 1398.5,844.5 C1398.16667,798.166667 1398,772.666667 1398,768 C1398,763.333333 1398.16667,737.833333 1398.5,691.5 C1398.83333,645.166667 1398.83333,610 1398.5,586 C1398.16667,562 1397.16667,529.833333 1395.5,489.5 C1393.83333,449.166667 1390.5,414.833333 1385.5,386.5 C1380.5,358.166667 1374.33333,334.333333 1367,315 C1353.66667,281.666667 1334.33333,252.333333 1309,227 C1283.66667,201.666667 1254.33333,182.333333 1221,169 C1201.66667,161.666667 1177.83333,155.5 1149.5,150.5 C1121.16667,145.5 1086.83333,142.166667 1046.5,140.5 C1006.16667,138.833333 974,137.833333 950,137.5 C926,137.166667 890.833333,137.166667 844.5,137.5 C798.166667,137.833333 772.666667,138 768,138 Z M1536,768 C1536,920.666667 1534.33333,1026.33333 1531,1085 C1524.33333,1223.66667 1483,1331 1407,1407 C1331,1483 1223.66667,1524.33333 1085,1531 C1026.33333,1534.33333 920.666667,1536 768,1536 C615.333333,1536 509.666667,1534.33333 451,1531 C312.333333,1524.33333 205,1483 129,1407 C53,1331 11.6666667,1223.66667 5,1085 C1.66666667,1026.33333 0,920.666667 0,768 C0,615.333333 1.66666667,509.666667 5,451 C11.6666667,312.333333 53,205 129,129 C205,53 312.333333,11.6666667 451,5 C509.666667,1.66666667 615.333333,0 768,0 C920.666667,0 1026.33333,1.66666667 1085,5 C1223.66667,11.6666667 1331,53 1407,129 C1483,205 1524.33333,312.333333 1531,451 C1534.33333,509.666667 1536,615.333333 1536,768 Z" id="Shape"></path>
        </g>
    </g>
</svg>