<?xml version="1.0" encoding="UTF-8"?>
<svg width="19px" height="15px" viewBox="0 0 19 15" version="1.1" xmlns="http://www.w3.org/2000/svg" xmlns:xlink="http://www.w3.org/1999/xlink">
    <!-- Generator: Sketch 46.2 (44496) - http://www.bohemiancoding.com/sketch -->
    <title>Path</title>
    <desc>Created with Sketch.</desc>
    <defs></defs>
    <g id="Symbols" stroke="none" stroke-width="1" fill="none" fill-rule="evenodd">
        <g id="footer" transform="translate(-1307.000000, -138.000000)" fill="#000000">
            <g transform="translate(0.000000, 77.000000)" id="Path">
                <path d="M1323.47161,64.7161405 C1323.71149,70.0118046 1319.76203,75.9156836 1312.77018,75.9156836 C1310.64405,75.9156836 1308.66604,75.291739 1307,74.2234305 C1308.99767,74.4593759 1310.99141,73.9035934 1312.57356,72.6648799 C1310.92718,72.6347313 1309.53641,71.5454499 1309.05535,70.049818 C1309.64652,70.1625475 1310.22852,70.1297773 1310.75678,69.9855884 C1308.94655,69.6211838 1307.69604,67.9905388 1307.73667,66.2458534 C1308.24527,66.5276771 1308.82464,66.6967713 1309.44204,66.7164334 C1307.76551,65.5956926 1307.291,63.381738 1308.27673,61.689485 C1310.13283,63.9676692 1312.90781,65.4659227 1316.03671,65.6232196 C1315.48748,63.2690085 1317.27411,61 1319.70566,61 C1320.78708,61 1321.76625,61.457472 1322.45311,62.1889028 C1323.31038,62.0211194 1324.11784,61.7065255 1324.84403,61.2752697 C1324.5622,62.1548218 1323.96579,62.8914959 1323.18848,63.3581435 C1323.95006,63.2663869 1324.67625,63.0645225 1325.35,62.7643475 C1324.84665,63.5219945 1324.2096,64.1852633 1323.47161,64.7161405 L1323.47161,64.7161405 Z"></path>
            </g>
        </g>
    </g>
</svg>