<svg xmlns="http://www.w3.org/2000/svg" viewBox="0 0 402.62 103.98"><defs><style>.cls-1{fill:#384e02;}.cls-2{fill:#2698c3;}.cls-3{fill:#464237;}</style></defs><title>Meyer - WRI - Vertical</title><g id="Layer_2" data-name="Layer 2"><g id="Dark_Green" data-name="Dark Green"><path class="cls-1" d="M32.08,9.11h-.23s-3.25-.47-5.5,3.68c-3.44,6.36-6,29.95-13.12,33.56l18.27-.06s3.86-1.15,6.09-10.77c.72-3.12,1.88-6.73,2.92-10.23C38.89,15.63,35.65,10.37,32.08,9.11Z"/><path class="cls-1" d="M77.57,0h-.7s-3.6-.47-6.09,3.68C67,10.05,63.53,43.93,55.92,46.27l20.56,0s4.28-1.15,6.75-10.77c.91-3.57,2.13-8.9,3.51-14.35C84.39,11.16,81.54,1.3,77.57,0Z"/><path class="cls-1" d="M117.68,34s-7.54,11.19-13.93,12.31H122.6a7.85,7.85,0,0,0,5.67-3.12c.61-.83,4.5-5.83,6.83-9.19H117.68"/><path class="cls-2" d="M100.35,46c5.16-.74,11.25-7.11,13.65-10.34-2.53-8.13-5.5-19-7-24.89C104.52,1.14,100.24,0,100.24,0H80c7.15,4.18,8.54,28.12,13.84,42.6C95.5,47.09,100.35,46,100.35,46Z"/><path class="cls-2" d="M62,30.19c-1-3.45-2.27-7.26-3-10.33-2.23-9.62-6.09-10.76-6.09-10.76H34.42c7.21,2.11,9,26.85,13.31,33.5,2.58,4,5.5,3.68,5.5,3.68h.43C57,45.2,59.67,38.39,62,30.19Z"/><path class="cls-2" d="M17.53,35.94H0C2.67,43,8.1,46.11,10.53,46.35,13.13,45.38,15.79,41.13,17.53,35.94Z"/><path class="cls-3" d="M12,102.66a.62.62,0,0,1-.62-.62V97.6L9.51,99.46s-.31.35-.54.35-.54-.35-.54-.35L6.57,97.6V102a.62.62,0,1,1-1.24,0V95.92a.6.6,0,0,1,.62-.62c.29,0,.58.39.58.39L9,98.29l2.41-2.6s.32-.39.57-.39a.58.58,0,0,1,.62.62V102A.61.61,0,0,1,12,102.66Z"/><path class="cls-3" d="M30.84,102.66a.61.61,0,0,1-.61-.62V97.6l-1.84,1.86s-.31.35-.54.35-.54-.35-.54-.35L25.46,97.6V102a.62.62,0,1,1-1.24,0V95.92a.61.61,0,0,1,.62-.62c.29,0,.59.39.59.39l2.43,2.6,2.42-2.6s.31-.39.57-.39a.59.59,0,0,1,.63.62V102A.61.61,0,0,1,30.84,102.66Z"/><path class="cls-3" d="M20.75,102.58h-4a.66.66,0,0,1-.67-.66V96a.66.66,0,0,1,.67-.66H20.6a.61.61,0,0,1,.62.61.62.62,0,0,1-.62.62H17.36v1.71h1.78a.61.61,0,0,1,.62.62.6.6,0,0,1-.62.6H17.36v1.81h3.39a.62.62,0,0,1,.63.62A.61.61,0,0,1,20.75,102.58Z"/><path class="cls-3" d="M38.21,102.71A3.72,3.72,0,1,1,41.91,99,3.64,3.64,0,0,1,38.21,102.71Zm0-6.26A2.54,2.54,0,1,0,40.58,99,2.37,2.37,0,0,0,38.21,96.45Z"/><path class="cls-3" d="M50.94,102a.65.65,0,0,1-.66.66.59.59,0,0,1-.58-.36l-1.26-2.6H46.27V102A.66.66,0,0,1,45,102V96a.66.66,0,0,1,.66-.66h2.77c1.8,0,2.56.89,2.56,2.16a2,2,0,0,1-1.19,1.92l1.12,2.25A.7.7,0,0,1,50.94,102Zm-2.37-5.4h-2.3v2h2.3a1,1,0,0,0,1-1A1,1,0,0,0,48.57,96.6Z"/><path class="cls-3" d="M54.83,102.66a.67.67,0,0,1-.67-.67V96a.67.67,0,0,1,.67-.67.65.65,0,0,1,.65.67v6A.65.65,0,0,1,54.83,102.66Z"/><path class="cls-3" d="M63.24,101H60l-.62,1.32a.57.57,0,0,1-.55.36.61.61,0,0,1-.63-.62.56.56,0,0,1,.07-.26l2.76-6.14a.56.56,0,0,1,.56-.34.55.55,0,0,1,.56.34L65,101.79A.54.54,0,0,1,65,102a.61.61,0,0,1-.62.62.56.56,0,0,1-.55-.36Zm-1.59-3.89-1.12,2.74h2.25Z"/><path class="cls-3" d="M68.46,102.58a.68.68,0,0,1-.67-.67V96a.67.67,0,0,1,.67-.67.65.65,0,0,1,.65.67v5.36h3.15a.62.62,0,0,1,.62.61.64.64,0,0,1-.62.63Z"/><path class="cls-3" d="M85.34,96.63H83.5V102a.67.67,0,0,1-.67.67.65.65,0,0,1-.65-.67V96.63H80.33a.62.62,0,1,1,0-1.24h5A.63.63,0,0,1,86,96,.62.62,0,0,1,85.34,96.63Z"/><path class="cls-3" d="M94.65,102a.65.65,0,0,1-.66.66.59.59,0,0,1-.58-.36l-1.26-2.6H90V102a.66.66,0,1,1-1.31,0V96a.65.65,0,0,1,.65-.66h2.78c1.79,0,2.55.89,2.55,2.16a2,2,0,0,1-1.19,1.92l1.11,2.25A.68.68,0,0,1,94.65,102Zm-2.37-5.4H90v2h2.3a1,1,0,0,0,1-1A1,1,0,0,0,92.27,96.6Z"/><path class="cls-3" d="M102.58,96a.66.66,0,1,1,1.32,0v3.7a3.08,3.08,0,0,1-6.16,0V96a.66.66,0,1,1,1.32,0v3.84a1.76,1.76,0,0,0,3.51,0Z"/><path class="cls-3" d="M109.78,102.71a4.31,4.31,0,0,1-2.49-.76.83.83,0,0,1-.37-.63.52.52,0,0,1,.55-.56.66.66,0,0,1,.34.1,3.1,3.1,0,0,0,2,.69c1,0,1.44-.42,1.44-.9s-.42-.8-1.72-1.14C107.58,99,107,98.36,107,97.28c0-1.31,1.13-2,2.85-2a5.51,5.51,0,0,1,1.38.2c.5.14,1.12.45,1.12.88a.55.55,0,0,1-.54.6.62.62,0,0,1-.26-.05,3.81,3.81,0,0,0-1.69-.45c-1,0-1.54.26-1.54.82s.43.71,1.73,1.09c1.48.43,2.53.86,2.53,2.23S111.61,102.71,109.78,102.71Z"/><path class="cls-3" d="M120.6,96.63h-1.85V102a.67.67,0,0,1-.67.67.65.65,0,0,1-.64-.67V96.63h-1.86a.62.62,0,1,1,0-1.24h5a.62.62,0,0,1,.62.63A.62.62,0,0,1,120.6,96.63Z"/><path class="cls-3" d="M40.13,83a1.47,1.47,0,0,1-2.93,0V72.17C37.2,67.77,35.54,65,31,65c-4.16,0-6.77,3-6.77,7.82V83a1.47,1.47,0,0,1-2.93,0V72.17c0-4.4-2-7.18-6.53-7.18-4.16,0-6.5,3-6.5,7.82V83a1.46,1.46,0,0,1-2.93,0V64a1.46,1.46,0,1,1,2.93,0V66.5a7.48,7.48,0,0,1,7.13-4.2,8.36,8.36,0,0,1,7.91,4.93c2.05-3.57,4.56-4.93,8.33-4.93,5.67,0,8.5,4.15,8.5,9.82Z"/><path class="cls-3" d="M65.94,73.25a1.24,1.24,0,0,1-1.22,1.22h-17A7.92,7.92,0,0,0,56,82.19a8.16,8.16,0,0,0,6.65-3.08,1.46,1.46,0,0,1,1.12-.64A1.18,1.18,0,0,1,65,79.7a1.46,1.46,0,0,1-.29.88A10.74,10.74,0,0,1,56,84.68a11.19,11.19,0,0,1-.29-22.38C61.69,62.3,65.94,67,65.94,73.25Zm-10.26-8.5A7.85,7.85,0,0,0,47.86,72H63.25C62.86,67.92,59.88,64.75,55.68,64.75Z"/><path class="cls-3" d="M87.8,64.45s-4.62,11.8-7.18,17.4c-2.08,4.54-3.78,7.95-8.13,10.54a1.59,1.59,0,0,1-.88.25,1.19,1.19,0,0,1-1.27-1.22c0-.54.29-.88.88-1.22,2.68-1.86,3.49-2.87,5.44-6.24l-8.31-19.4a2.07,2.07,0,0,1-.19-.73,1.3,1.3,0,0,1,1.37-1.32,1.27,1.27,0,0,1,1.27.93l7.38,17.4,7.23-17.5a1.19,1.19,0,0,1,1.22-.83,1.26,1.26,0,0,1,1.32,1.32A1.7,1.7,0,0,1,87.8,64.45Z"/><path class="cls-3" d="M111.15,73.25a1.24,1.24,0,0,1-1.22,1.22H93a7.92,7.92,0,0,0,8.21,7.72,8.16,8.16,0,0,0,6.64-3.08,1.46,1.46,0,0,1,1.12-.64,1.18,1.18,0,0,1,1.22,1.22,1.48,1.48,0,0,1-.29.88,10.74,10.74,0,0,1-8.7,4.11,11.19,11.19,0,0,1-.29-22.38C106.9,62.3,111.15,67,111.15,73.25Zm-10.26-8.5A7.85,7.85,0,0,0,93.06,72h15.4C108.07,67.92,105.09,64.75,100.89,64.75Z"/><path class="cls-3" d="M128.42,64.07c-4.33,0-8.75,4.63-8.75,10.27v8.71a1.52,1.52,0,0,1-1.51,1.51,1.55,1.55,0,0,1-1.51-1.51V63.41a1.51,1.51,0,1,1,3,0v3.53c1-2.87,5.17-5.54,8.75-5.54a1.35,1.35,0,1,1,0,2.67Z"/><path class="cls-3" d="M158.65,104a2.09,2.09,0,0,1-2.09-2.1V60.72a2.09,2.09,0,0,1,2.09-2.09h0a2.09,2.09,0,0,1,2.09,2.09v41.17a2.09,2.09,0,0,1-2.09,2.1Z"/><path class="cls-3" d="M202.61,72.58l2.92-8.25a1,1,0,0,1,1-.77,1,1,0,0,1,1.08,1.1,1.08,1.08,0,0,1-.06.33l-3.92,11a1.14,1.14,0,0,1-2.12,0l-2.76-8.35L196,76a1.14,1.14,0,0,1-2.12,0L190,65a1.08,1.08,0,0,1-.06-.33,1,1,0,0,1,1.08-1.1,1,1,0,0,1,1,.77L195,72.58l2.78-8.27a1.1,1.1,0,0,1,2.09,0Z"/><path class="cls-3" d="M212.7,76.73a1.2,1.2,0,0,1-1.2-1.2V64.76a1.2,1.2,0,0,1,1.2-1.2,1.17,1.17,0,0,1,1.16,1.2V75.54A1.17,1.17,0,0,1,212.7,76.73Z"/><path class="cls-3" d="M220.18,76.58a1.2,1.2,0,0,1-1.2-1.2V64.76a1.2,1.2,0,0,1,1.2-1.2,1.17,1.17,0,0,1,1.16,1.2v9.6H227a1.1,1.1,0,0,1,1.1,1.1,1.13,1.13,0,0,1-1.1,1.12Z"/><path class="cls-3" d="M233,76.58a1.2,1.2,0,0,1-1.2-1.2V64.76a1.2,1.2,0,0,1,1.2-1.2,1.17,1.17,0,0,1,1.16,1.2v9.6h5.64a1.1,1.1,0,0,1,1.1,1.1,1.13,1.13,0,0,1-1.1,1.12Z"/><path class="cls-3" d="M253.12,73.74H247.4l-1.1,2.36a1,1,0,0,1-1,.64,1.09,1.09,0,0,1-1.12-1.1,1,1,0,0,1,.12-.46l4.95-11a1,1,0,0,1,1-.62,1,1,0,0,1,1,.62l4.95,11a1,1,0,0,1,.12.46,1.09,1.09,0,0,1-1.12,1.1,1,1,0,0,1-1-.64Zm-2.86-7-2,4.91h4Z"/><path class="cls-3" d="M272,76.73a1.1,1.1,0,0,1-1.1-1.1V69.2l-3.28,6.92a1,1,0,0,1-1,.62,1,1,0,0,1-1-.62l-3.32-6.92v6.41a1.11,1.11,0,1,1-2.22,0v-11a1.09,1.09,0,0,1,1.1-1.1,1.15,1.15,0,0,1,1,.7l4.37,9.06L271,64.25a1.14,1.14,0,0,1,1-.7,1.05,1.05,0,0,1,1.12,1.12v11A1.09,1.09,0,0,1,272,76.73Z"/><path class="cls-3" d="M286.7,76.58h-7.24a1.19,1.19,0,0,1-1.2-1.18V64.89a1.19,1.19,0,0,1,1.2-1.18h7a1.09,1.09,0,0,1,1.12,1.08,1.1,1.1,0,0,1-1.12,1.1h-5.79V69h3.19a1.1,1.1,0,0,1,1.1,1.1,1.08,1.08,0,0,1-1.1,1.08h-3.19V74.4h6.08a1.1,1.1,0,0,1,1.12,1.1A1.09,1.09,0,0,1,286.7,76.58Z"/><path class="cls-3" d="M301,65.94h-3.3v9.6a1.2,1.2,0,0,1-1.2,1.2,1.17,1.17,0,0,1-1.16-1.2v-9.6H292a1.11,1.11,0,1,1,0-2.22h9a1.12,1.12,0,0,1,1.12,1.12A1.11,1.11,0,0,1,301,65.94Z"/><path class="cls-3" d="M315.36,65.94h-3.3v9.6a1.2,1.2,0,0,1-1.2,1.2,1.17,1.17,0,0,1-1.16-1.2v-9.6h-3.32a1.11,1.11,0,1,1,0-2.22h9a1.12,1.12,0,0,1,1.12,1.12A1.11,1.11,0,0,1,315.36,65.94Z"/><path class="cls-3" d="M328.63,76.58h-7.24a1.19,1.19,0,0,1-1.2-1.18V64.89a1.19,1.19,0,0,1,1.2-1.18h7a1.09,1.09,0,0,1,1.12,1.08,1.11,1.11,0,0,1-1.12,1.1h-5.79V69h3.19a1.1,1.1,0,0,1,1.1,1.1,1.08,1.08,0,0,1-1.1,1.08h-3.19V74.4h6.08a1.1,1.1,0,0,1,1.12,1.1A1.09,1.09,0,0,1,328.63,76.58Z"/><path class="cls-3" d="M352.07,75.56a1.17,1.17,0,0,1-1.18,1.18,1.06,1.06,0,0,1-1-.64l-2.26-4.66h-3.88v4.11a1.18,1.18,0,1,1-2.36,0V64.89a1.17,1.17,0,0,1,1.18-1.18h5c3.21,0,4.58,1.58,4.58,3.86A3.51,3.51,0,0,1,349.94,71l2,4A1.15,1.15,0,0,1,352.07,75.56Zm-4.25-9.68h-4.11v3.54h4.11a1.77,1.77,0,0,0,1.87-1.82A1.71,1.71,0,0,0,347.82,65.88Z"/><path class="cls-3" d="M357.94,76.73a1.2,1.2,0,0,1-1.2-1.2V64.76a1.2,1.2,0,0,1,1.2-1.2,1.17,1.17,0,0,1,1.16,1.2V75.54A1.17,1.17,0,0,1,357.94,76.73Z"/><path class="cls-3" d="M374.56,65.12l-4.77,11a1.11,1.11,0,0,1-1,.64,1.06,1.06,0,0,1-1-.64l-4.79-11a1.15,1.15,0,0,1-.1-.44A1.13,1.13,0,0,1,364,63.56a1.11,1.11,0,0,1,1,.64l3.77,9,3.81-9a1.08,1.08,0,0,1,1-.64,1.1,1.1,0,0,1,1.1,1.1A1.31,1.31,0,0,1,374.56,65.12Z"/><path class="cls-3" d="M386.86,76.58h-7.24a1.19,1.19,0,0,1-1.2-1.18V64.89a1.19,1.19,0,0,1,1.2-1.18h7a1.09,1.09,0,0,1,1.12,1.08,1.1,1.1,0,0,1-1.12,1.1h-5.79V69H384a1.1,1.1,0,0,1,1.1,1.1,1.08,1.08,0,0,1-1.1,1.08h-3.19V74.4h6.08A1.1,1.1,0,0,1,388,75.5,1.09,1.09,0,0,1,386.86,76.58Z"/><path class="cls-3" d="M402.62,75.56a1.17,1.17,0,0,1-1.18,1.18,1.06,1.06,0,0,1-1-.64l-2.26-4.66h-3.88v4.11a1.18,1.18,0,0,1-2.36,0V64.89a1.17,1.17,0,0,1,1.18-1.18h5c3.21,0,4.58,1.58,4.58,3.86A3.51,3.51,0,0,1,400.5,71l2,4A1.15,1.15,0,0,1,402.62,75.56Zm-4.25-9.68h-4.11v3.54h4.11a1.77,1.77,0,0,0,1.87-1.82A1.71,1.71,0,0,0,398.37,65.88Z"/><path class="cls-3" d="M192.21,99a1.2,1.2,0,0,1-1.2-1.2V87a1.2,1.2,0,0,1,1.2-1.2,1.17,1.17,0,0,1,1.16,1.2V97.75A1.17,1.17,0,0,1,192.21,99Z"/><path class="cls-3" d="M208.23,99a1,1,0,0,1-.85-.41l-6.67-8.42v7.73a1.11,1.11,0,0,1-2.22,0v-11a1.11,1.11,0,0,1,1.16-1.12,1.07,1.07,0,0,1,.81.41l6.67,8.42V86.9a1.09,1.09,0,0,1,1.1-1.12,1.11,1.11,0,0,1,1.12,1.12v11A1.09,1.09,0,0,1,208.23,99Z"/><path class="cls-3" d="M215.7,99a1.2,1.2,0,0,1-1.2-1.2V87a1.2,1.2,0,0,1,1.2-1.2,1.17,1.17,0,0,1,1.16,1.2V97.75A1.17,1.17,0,0,1,215.7,99Z"/><path class="cls-3" d="M230.69,88.15h-3.3v9.6a1.2,1.2,0,0,1-1.2,1.2,1.17,1.17,0,0,1-1.16-1.2v-9.6h-3.32a1.11,1.11,0,1,1,0-2.22h9a1.12,1.12,0,0,1,1.12,1.12A1.11,1.11,0,0,1,230.69,88.15Z"/><path class="cls-3" d="M236.77,99a1.2,1.2,0,0,1-1.2-1.2V87a1.2,1.2,0,0,1,1.2-1.2,1.17,1.17,0,0,1,1.16,1.2V97.75A1.17,1.17,0,0,1,236.77,99Z"/><path class="cls-3" d="M250.7,96H245l-1.1,2.36a1,1,0,0,1-1,.64,1.09,1.09,0,0,1-1.12-1.1,1,1,0,0,1,.12-.46l4.95-11a1,1,0,0,1,1-.62,1,1,0,0,1,1,.62l4.95,11a1,1,0,0,1,.12.46,1.09,1.09,0,0,1-1.12,1.1,1,1,0,0,1-1-.64Zm-2.86-7-2,4.91h4Z"/><path class="cls-3" d="M265.14,88.15h-3.3v9.6a1.2,1.2,0,0,1-1.2,1.2,1.17,1.17,0,0,1-1.16-1.2v-9.6h-3.32a1.11,1.11,0,1,1,0-2.22h9a1.12,1.12,0,0,1,1.12,1.12A1.11,1.11,0,0,1,265.14,88.15Z"/><path class="cls-3" d="M271.22,99a1.2,1.2,0,0,1-1.2-1.2V87a1.2,1.2,0,0,1,1.2-1.2,1.17,1.17,0,0,1,1.16,1.2V97.75A1.17,1.17,0,0,1,271.22,99Z"/><path class="cls-3" d="M287.83,87.34l-4.77,11a1.11,1.11,0,0,1-1,.64,1.06,1.06,0,0,1-1-.64l-4.79-11a1.15,1.15,0,0,1-.1-.44,1.13,1.13,0,0,1,1.08-1.12,1.11,1.11,0,0,1,1,.64l3.77,9,3.81-9a1.08,1.08,0,0,1,1-.64,1.1,1.1,0,0,1,1.1,1.1A1.31,1.31,0,0,1,287.83,87.34Z"/><path class="cls-3" d="M300.14,98.8h-7.24a1.19,1.19,0,0,1-1.2-1.18V87.11a1.19,1.19,0,0,1,1.2-1.18h7A1.09,1.09,0,0,1,301,87a1.1,1.1,0,0,1-1.12,1.1h-5.79v3.07h3.19a1.1,1.1,0,0,1,1.1,1.1,1.08,1.08,0,0,1-1.1,1.08h-3.19v3.25h6.08a1.1,1.1,0,0,1,1.12,1.1A1.09,1.09,0,0,1,300.14,98.8Z"/></g></g></svg>