<?xml version="1.0" encoding="UTF-8"?>
<svg width="41px" height="7px" viewBox="0 0 41 7" version="1.1" xmlns="http://www.w3.org/2000/svg" xmlns:xlink="http://www.w3.org/1999/xlink">
    <!-- Generator: Sketch 46.2 (44496) - http://www.bohemiancoding.com/sketch -->
    <title>Fill 1</title>
    <desc>Created with Sketch.</desc>
    <defs></defs>
    <g id="Inner-pages" stroke="none" stroke-width="1" fill="none" fill-rule="evenodd">
        <g id="Campaigns" transform="translate(-697.000000, -1511.000000)" fill="#78CFDD">
            <g id="text" transform="translate(99.000000, 734.000000)">
                <g id="callout-text" transform="translate(212.000000, 603.000000)">
                    <path d="M419.748556,177.5042 C417.281938,177.259018 415.241042,175.587678 413.389462,174 C411.434186,175.677145 409.202073,177.529119 406.547947,177.529219 C403.893346,177.529219 401.660852,175.677445 399.704815,174.0002 C397.763619,175.665236 395.513335,177.529819 392.888416,177.529819 C390.804234,177.529819 388.981003,176.389473 387.360978,175.124635 C386.897678,174.762966 386.450171,174.380682 386.000095,174.001301 L386,177.697444 C387.980867,179.218673 390.362054,180.431373 392.861017,180.431373 C395.351037,180.431373 397.725471,179.203661 399.705005,177.700646 C401.68435,179.203161 404.058403,180.431373 406.548042,180.431373 C409.037206,180.431373 411.410879,179.202861 413.389747,177.700446 C415.301357,179.151323 417.569526,180.336102 419.965174,180.426069 C421.954317,180.500324 423.8821,179.754871 425.576805,178.711396 C426.062937,178.412074 426.538794,178.087833 427,177.747681 L427,174.062546 C425.135386,175.707367 422.809186,177.529819 420.266937,177.529819 C420.095031,177.529819 419.922459,177.521513 419.748556,177.5042" id="Fill-1"></path>
                </g>
            </g>
        </g>
    </g>
</svg>