<?xml version="1.0" encoding="UTF-8" standalone="no"?>
<svg width="136px" height="70px" viewBox="0 0 136 70" version="1.1" xmlns="http://www.w3.org/2000/svg" xmlns:xlink="http://www.w3.org/1999/xlink">
    <!-- Generator: Sketch 46.2 (44496) - http://www.bohemiancoding.com/sketch -->
    <title>CRlogob_w</title>
    <desc>Created with Sketch.</desc>
    <defs></defs>
    <g id="Home" stroke="none" stroke-width="1" fill="none" fill-rule="evenodd">
        <g id="Home-Desktop" transform="translate(-97.000000, -40.000000)" fill="#FFFFFF">
            <g id="desktop-nav">
                <g id="CRlogob_w" transform="translate(97.000000, 40.000000)">
                    <g id="Group" transform="translate(2.000000, 60.000000)" fill-rule="nonzero">
                        <path d="M6.22222222,9.25 L3.55555556,5.25 L3.28888889,5.25 L3.28888889,8.16666667 C3.64444444,8.16666667 4,8.25 4.26666667,8.33333333 L4.26666667,9.25 L0.444444444,9.25 L0.444444444,8.33333333 C0.622222222,8.25 0.888888889,8.25 1.06666667,8.25 C1.24444444,8.25 1.51111111,8.16666667 1.68888889,8.16666667 L1.68888889,1.08333333 C1.42222222,1.08333333 1.24444444,1.08333333 1.06666667,1 C0.888888889,1 0.622222222,0.916666667 0.444444444,0.916666667 L0.444444444,0 L1.6,0 C1.68888889,0 1.86666667,0 2.04444444,0 C2.22222222,0 2.48888889,0 2.66666667,0 C2.93333333,0 3.2,0 3.46666667,0 C3.73333333,0 4.08888889,0 4.35555556,0 C4.88888889,0 5.33333333,0.0833333333 5.77777778,0.166666667 C6.22222222,0.25 6.57777778,0.416666667 6.84444444,0.583333333 C7.11111111,0.75 7.37777778,1 7.55555556,1.33333333 C7.73333333,1.66666667 7.82222222,2.08333333 7.82222222,2.5 C7.82222222,2.83333333 7.73333333,3.16666667 7.64444444,3.41666667 C7.55555556,3.66666667 7.37777778,3.91666667 7.11111111,4.16666667 C6.84444444,4.41666667 6.57777778,4.58333333 6.31111111,4.66666667 C5.95555556,4.83333333 5.68888889,4.91666667 5.24444444,5 C5.33333333,5.08333333 5.42222222,5.25 5.51111111,5.41666667 C5.6,5.58333333 5.68888889,5.66666667 5.77777778,5.83333333 L7.46666667,8.25 C7.64444444,8.25 7.82222222,8.25 8,8.33333333 C8.17777778,8.33333333 8.35555556,8.41666667 8.53333333,8.41666667 L8.53333333,9.33333333 L6.22222222,9.33333333 L6.22222222,9.25 Z M5.68888889,1.5 C5.33333333,1.25 4.88888889,1.16666667 4.17777778,1.16666667 C4,1.16666667 3.91111111,1.16666667 3.73333333,1.16666667 C3.55555556,1.16666667 3.46666667,1.16666667 3.37777778,1.16666667 L3.37777778,4.08333333 C3.46666667,4.08333333 3.55555556,4.08333333 3.73333333,4.08333333 C3.82222222,4.08333333 4,4.08333333 4.17777778,4.08333333 C4.8,4.08333333 5.33333333,3.91666667 5.68888889,3.66666667 C6.04444444,3.41666667 6.22222222,3 6.22222222,2.58333333 C6.13333333,2.08333333 5.95555556,1.75 5.68888889,1.5 Z" id="Shape"></path>
                        <path d="M12.9777778,9.25 L12.9777778,8.33333333 C13.1555556,8.25 13.4222222,8.25 13.6,8.25 C13.7777778,8.25 14.0444444,8.16666667 14.2222222,8.16666667 L14.2222222,1.08333333 C13.9555556,1.08333333 13.7777778,1.08333333 13.6,1 C13.4222222,1 13.1555556,0.916666667 12.9777778,0.916666667 L12.9777778,0 L17.0666667,0 L17.0666667,0.916666667 C16.8888889,1 16.6222222,1 16.4444444,1 C16.2666667,1 16,1.08333333 15.8222222,1.08333333 L15.8222222,8.16666667 C16.0888889,8.16666667 16.2666667,8.16666667 16.4444444,8.25 C16.6222222,8.25 16.8888889,8.33333333 17.0666667,8.33333333 L17.0666667,9.25 L12.9777778,9.25 L12.9777778,9.25 Z" id="Shape"></path>
                        <path d="M25.6,5.66666667 C25.6888889,5.91666667 25.7777778,6.25 25.8666667,6.58333333 C25.9555556,6.91666667 26.0444444,7.25 26.1333333,7.58333333 L26.1333333,7.58333333 C26.2222222,7.25 26.3111111,6.91666667 26.4,6.66666667 C26.4888889,6.33333333 26.5777778,6 26.7555556,5.66666667 L28.4444444,1.08333333 C28.2666667,1.08333333 28.0888889,1.08333333 27.9111111,1 C27.7333333,1 27.5555556,0.916666667 27.3777778,0.916666667 L27.3777778,0 L30.9333333,0 L30.9333333,0.916666667 C30.8444444,0.916666667 30.6666667,1 30.4888889,1 C30.3111111,1 30.2222222,1.08333333 30.0444444,1.08333333 L26.9333333,9.33333333 L25.0666667,9.33333333 L21.9555556,1.08333333 C21.7777778,1.08333333 21.6888889,1.08333333 21.5111111,1 C21.3333333,1 21.2444444,0.916666667 21.0666667,0.916666667 L21.0666667,0 L24.8,0 L24.8,0.916666667 C24.6222222,0.916666667 24.4444444,1 24.2666667,1 C24.0888889,1 23.9111111,1.08333333 23.7333333,1.08333333 L25.6,5.66666667 Z" id="Shape"></path>
                        <path d="M35.2888889,9.25 L35.2888889,8.33333333 C35.4666667,8.25 35.7333333,8.25 35.9111111,8.25 C36.0888889,8.25 36.3555556,8.16666667 36.5333333,8.16666667 L36.5333333,1.08333333 C36.2666667,1.08333333 36.0888889,1.08333333 35.9111111,1 C35.7333333,1 35.4666667,0.916666667 35.2888889,0.916666667 L35.2888889,0 L41.7777778,0 L41.7777778,2.25 L40.6222222,2.25 C40.6222222,2.08333333 40.5333333,1.83333333 40.5333333,1.66666667 C40.5333333,1.5 40.4444444,1.33333333 40.4444444,1.16666667 L38.0444444,1.16666667 L38.0444444,3.91666667 L39.9111111,3.91666667 C39.9111111,3.75 39.9111111,3.58333333 40,3.5 C40,3.33333333 40.0888889,3.25 40.0888889,3.08333333 L41.0666667,3.08333333 L41.0666667,5.91666667 L40.0888889,5.91666667 C40,5.75 40,5.66666667 40,5.5 C40,5.33333333 39.9111111,5.16666667 39.9111111,5.08333333 L38.0444444,5.08333333 L38.0444444,8.08333333 L40.4444444,8.08333333 C40.4444444,7.91666667 40.4444444,7.75 40.5333333,7.58333333 C40.5333333,7.41666667 40.6222222,7.25 40.6222222,7 L41.7777778,7 L41.7777778,9.33333333 L35.2888889,9.33333333 L35.2888889,9.25 Z" id="Shape"></path>
                        <path d="M52.6222222,9.25 L49.9555556,5.25 L49.6888889,5.25 L49.6888889,8.16666667 C50.0444444,8.16666667 50.4,8.25 50.6666667,8.33333333 L50.6666667,9.25 L46.8444444,9.25 L46.8444444,8.33333333 C47.0222222,8.25 47.2888889,8.25 47.4666667,8.25 C47.6444444,8.25 47.9111111,8.16666667 48.0888889,8.16666667 L48.0888889,1.08333333 C47.8222222,1.08333333 47.6444444,1.08333333 47.4666667,1 C47.2888889,1 47.0222222,0.916666667 46.8444444,0.916666667 L46.8444444,0 L48,0 C48.0888889,0 48.2666667,0 48.4444444,0 C48.6222222,0 48.8888889,0 49.0666667,0 C49.3333333,0 49.6,0 49.8666667,0 C50.1333333,0 50.4888889,0 50.7555556,0 C51.2888889,0 51.7333333,0.0833333333 52.1777778,0.166666667 C52.6222222,0.25 52.9777778,0.416666667 53.2444444,0.583333333 C53.5111111,0.75 53.7777778,1 53.9555556,1.33333333 C54.1333333,1.66666667 54.2222222,2.08333333 54.2222222,2.5 C54.2222222,2.83333333 54.1333333,3.16666667 54.0444444,3.41666667 C53.9555556,3.66666667 53.7777778,3.91666667 53.5111111,4.16666667 C53.2444444,4.41666667 52.9777778,4.58333333 52.7111111,4.66666667 C52.3555556,4.83333333 52.0888889,4.91666667 51.6444444,5 C51.7333333,5.08333333 51.8222222,5.25 51.9111111,5.41666667 C52,5.58333333 52.0888889,5.66666667 52.1777778,5.83333333 L53.8666667,8.25 C54.0444444,8.25 54.2222222,8.25 54.4,8.33333333 C54.5777778,8.33333333 54.7555556,8.41666667 54.9333333,8.41666667 L54.9333333,9.33333333 L52.6222222,9.33333333 L52.6222222,9.25 Z M52,1.5 C51.6444444,1.25 51.2,1.16666667 50.4888889,1.16666667 C50.3111111,1.16666667 50.2222222,1.16666667 50.0444444,1.16666667 C49.8666667,1.16666667 49.7777778,1.16666667 49.6888889,1.16666667 L49.6888889,4.08333333 C49.7777778,4.08333333 49.8666667,4.08333333 50.0444444,4.08333333 C50.1333333,4.08333333 50.3111111,4.08333333 50.4888889,4.08333333 C51.1111111,4.08333333 51.6444444,3.91666667 52,3.66666667 C52.3555556,3.41666667 52.5333333,3 52.5333333,2.58333333 C52.5333333,2.08333333 52.3555556,1.75 52,1.5 Z" id="Shape"></path>
                        <path d="M64.6222222,9.25 L64.6222222,8.33333333 C64.8,8.33333333 64.8888889,8.25 65.0666667,8.25 C65.2444444,8.25 65.3333333,8.16666667 65.5111111,8.16666667 L62.2222222,4.58333333 L62.2222222,8.16666667 C62.4,8.16666667 62.5777778,8.16666667 62.7555556,8.25 C62.9333333,8.25 63.1111111,8.33333333 63.2888889,8.33333333 L63.2888889,9.25 L59.3777778,9.25 L59.3777778,8.33333333 C59.5555556,8.25 59.8222222,8.25 60,8.25 C60.1777778,8.25 60.4444444,8.16666667 60.6222222,8.16666667 L60.6222222,1.08333333 C60.3555556,1.08333333 60.1777778,1.08333333 60,1 C59.8222222,1 59.5555556,0.916666667 59.3777778,0.916666667 L59.3777778,0 L63.2888889,0 L63.2888889,0.916666667 C63.1111111,1 62.9333333,1 62.7555556,1 C62.5777778,1 62.4,1.08333333 62.2222222,1.08333333 L62.2222222,4.41666667 L65.5111111,1.08333333 C65.3333333,1.08333333 65.2444444,1.08333333 65.0666667,1 C64.8888889,1 64.8,0.916666667 64.6222222,0.916666667 L64.6222222,0 L68.4444444,0 L68.4444444,0.916666667 C68.2666667,0.916666667 68.0888889,1 67.9111111,1 C67.7333333,1 67.5555556,1.08333333 67.3777778,1.08333333 L64,4.5 L67.6444444,8.25 C67.8222222,8.25 68,8.25 68.1777778,8.33333333 C68.3555556,8.33333333 68.5333333,8.41666667 68.7111111,8.41666667 L68.7111111,9.33333333 L64.6222222,9.33333333 L64.6222222,9.25 Z" id="Shape"></path>
                        <path d="M72.9777778,9.25 L72.9777778,8.33333333 C73.1555556,8.25 73.4222222,8.25 73.6,8.25 C73.7777778,8.25 74.0444444,8.16666667 74.2222222,8.16666667 L74.2222222,1.08333333 C73.9555556,1.08333333 73.7777778,1.08333333 73.6,1 C73.4222222,1 73.1555556,0.916666667 72.9777778,0.916666667 L72.9777778,0 L79.4666667,0 L79.4666667,2.25 L78.3111111,2.25 C78.3111111,2.08333333 78.2222222,1.83333333 78.2222222,1.66666667 C78.2222222,1.5 78.1333333,1.33333333 78.1333333,1.16666667 L75.7333333,1.16666667 L75.7333333,3.91666667 L77.6,3.91666667 C77.6,3.75 77.6,3.58333333 77.6888889,3.5 C77.6888889,3.33333333 77.7777778,3.25 77.7777778,3.08333333 L78.7555556,3.08333333 L78.7555556,5.91666667 L77.7777778,5.91666667 C77.6888889,5.75 77.6888889,5.66666667 77.6888889,5.5 C77.6888889,5.33333333 77.6,5.16666667 77.6,5.08333333 L75.7333333,5.08333333 L75.7333333,8.08333333 L78.1333333,8.08333333 C78.1333333,7.91666667 78.1333333,7.75 78.2222222,7.58333333 C78.2222222,7.41666667 78.3111111,7.25 78.3111111,7 L79.4666667,7 L79.4666667,9.33333333 L72.9777778,9.33333333 L72.9777778,9.25 Z" id="Shape"></path>
                        <path d="M84.5333333,9.25 L84.5333333,8.33333333 C84.7111111,8.25 84.9777778,8.25 85.1555556,8.25 C85.3333333,8.25 85.6,8.16666667 85.7777778,8.16666667 L85.7777778,1.08333333 C85.5111111,1.08333333 85.3333333,1.08333333 85.1555556,1 C84.9777778,1 84.7111111,0.916666667 84.5333333,0.916666667 L84.5333333,0 L91.0222222,0 L91.0222222,2.25 L89.8666667,2.25 C89.8666667,2.08333333 89.7777778,1.83333333 89.7777778,1.66666667 C89.7777778,1.5 89.6888889,1.33333333 89.6888889,1.16666667 L87.2888889,1.16666667 L87.2888889,3.91666667 L89.1555556,3.91666667 C89.1555556,3.75 89.1555556,3.58333333 89.2444444,3.5 C89.2444444,3.33333333 89.3333333,3.25 89.3333333,3.08333333 L90.3111111,3.08333333 L90.3111111,5.91666667 L89.3333333,5.91666667 C89.2444444,5.75 89.2444444,5.66666667 89.2444444,5.5 C89.2444444,5.33333333 89.1555556,5.16666667 89.1555556,5.08333333 L87.2888889,5.08333333 L87.2888889,8.08333333 L89.6888889,8.08333333 C89.6888889,7.91666667 89.6888889,7.75 89.7777778,7.58333333 C89.7777778,7.41666667 89.8666667,7.25 89.8666667,7 L91.0222222,7 L91.0222222,9.33333333 L84.5333333,9.33333333 L84.5333333,9.25 Z" id="Shape"></path>
                        <path d="M103.2,4 C103.022222,4.41666667 102.755556,4.75 102.4,5 C102.044444,5.25 101.688889,5.5 101.155556,5.66666667 C100.711111,5.83333333 100.177778,5.91666667 99.5555556,5.91666667 C99.4666667,5.91666667 99.2888889,5.91666667 99.2,5.91666667 C99.1111111,5.91666667 98.9333333,5.91666667 98.8444444,5.91666667 L98.8444444,8.25 C99.1111111,8.25 99.2888889,8.25 99.4666667,8.33333333 C99.6444444,8.33333333 99.9111111,8.41666667 100.088889,8.41666667 L100.088889,9.33333333 L96,9.33333333 L96,8.33333333 C96.1777778,8.25 96.4444444,8.25 96.6222222,8.25 C96.8,8.25 97.0666667,8.16666667 97.2444444,8.16666667 L97.2444444,1.08333333 C96.9777778,1.08333333 96.8,1.08333333 96.6222222,1 C96.4444444,1 96.1777778,0.916666667 96,0.916666667 L96,0 L97.1555556,0 C97.2444444,0 97.4222222,0 97.6,0 C97.7777778,0 98.0444444,0 98.3111111,0 C98.5777778,0 98.8444444,0 99.1111111,0 C99.3777778,0 99.6444444,0 99.9111111,0 C101.066667,0 101.955556,0.25 102.577778,0.75 C103.2,1.25 103.466667,1.91666667 103.466667,2.75 C103.466667,3.16666667 103.377778,3.58333333 103.2,4 Z M101.333333,1.58333333 C100.977778,1.25 100.444444,1.16666667 99.7333333,1.16666667 C99.5555556,1.16666667 99.4666667,1.16666667 99.2888889,1.16666667 C99.1111111,1.16666667 99.0222222,1.16666667 98.9333333,1.16666667 L98.9333333,4.58333333 C99.0222222,4.58333333 99.2,4.58333333 99.2888889,4.58333333 C99.3777778,4.58333333 99.5555556,4.58333333 99.6444444,4.58333333 C100.355556,4.58333333 100.888889,4.41666667 101.244444,4.08333333 C101.688889,3.75 101.866667,3.33333333 101.866667,2.75 C101.866667,2.33333333 101.688889,1.91666667 101.333333,1.58333333 Z" id="Shape"></path>
                        <path d="M107.822222,9.25 L107.822222,8.33333333 C108,8.25 108.266667,8.25 108.444444,8.25 C108.622222,8.25 108.888889,8.16666667 109.066667,8.16666667 L109.066667,1.08333333 C108.8,1.08333333 108.622222,1.08333333 108.444444,1 C108.266667,1 108,0.916666667 107.822222,0.916666667 L107.822222,0 L114.311111,0 L114.311111,2.25 L113.155556,2.25 C113.155556,2.08333333 113.066667,1.83333333 113.066667,1.66666667 C113.066667,1.5 112.977778,1.33333333 112.977778,1.16666667 L110.577778,1.16666667 L110.577778,3.91666667 L112.444444,3.91666667 C112.444444,3.75 112.444444,3.58333333 112.533333,3.5 C112.533333,3.33333333 112.622222,3.25 112.622222,3.08333333 L113.6,3.08333333 L113.6,5.91666667 L112.622222,5.91666667 C112.533333,5.75 112.533333,5.66666667 112.533333,5.5 C112.533333,5.33333333 112.444444,5.16666667 112.444444,5.08333333 L110.577778,5.08333333 L110.577778,8.08333333 L112.977778,8.08333333 C112.977778,7.91666667 113.066667,7.75 113.066667,7.58333333 C113.066667,7.41666667 113.155556,7.25 113.155556,7 L114.311111,7 L114.311111,9.33333333 L107.822222,9.33333333 L107.822222,9.25 Z" id="Shape"></path>
                        <path d="M125.155556,9.25 L122.488889,5.25 L122.222222,5.25 L122.222222,8.16666667 C122.577778,8.16666667 122.933333,8.25 123.2,8.33333333 L123.2,9.25 L119.377778,9.25 L119.377778,8.33333333 C119.555556,8.25 119.822222,8.25 120,8.25 C120.177778,8.25 120.444444,8.16666667 120.622222,8.16666667 L120.622222,1.08333333 C120.355556,1.08333333 120.177778,1.08333333 120,1 C119.822222,1 119.555556,0.916666667 119.377778,0.916666667 L119.377778,0 L120.533333,0 C120.622222,0 120.8,0 120.977778,0 C121.155556,0 121.422222,0 121.6,0 C121.866667,0 122.133333,0 122.4,0 C122.666667,0 123.022222,0 123.288889,0 C123.822222,0 124.266667,0.0833333333 124.711111,0.166666667 C125.155556,0.25 125.511111,0.416666667 125.777778,0.583333333 C126.044444,0.75 126.311111,1 126.488889,1.33333333 C126.666667,1.66666667 126.755556,2.08333333 126.755556,2.5 C126.755556,2.83333333 126.666667,3.16666667 126.577778,3.41666667 C126.488889,3.66666667 126.311111,3.91666667 126.044444,4.16666667 C125.777778,4.41666667 125.511111,4.58333333 125.244444,4.66666667 C124.888889,4.83333333 124.622222,4.91666667 124.177778,5 C124.266667,5.08333333 124.355556,5.25 124.444444,5.41666667 C124.533333,5.58333333 124.622222,5.66666667 124.711111,5.83333333 L126.4,8.25 C126.577778,8.25 126.755556,8.25 126.933333,8.33333333 C127.111111,8.33333333 127.288889,8.41666667 127.466667,8.41666667 L127.466667,9.33333333 L125.155556,9.33333333 L125.155556,9.25 Z M124.622222,1.5 C124.266667,1.25 123.822222,1.16666667 123.111111,1.16666667 C122.933333,1.16666667 122.844444,1.16666667 122.666667,1.16666667 C122.488889,1.16666667 122.4,1.16666667 122.311111,1.16666667 L122.311111,4.08333333 C122.4,4.08333333 122.488889,4.08333333 122.666667,4.08333333 C122.844444,4.08333333 122.933333,4.08333333 123.111111,4.08333333 C123.733333,4.08333333 124.266667,3.91666667 124.622222,3.66666667 C124.977778,3.41666667 125.155556,3 125.155556,2.58333333 C125.066667,2.08333333 124.888889,1.75 124.622222,1.5 Z" id="Shape"></path>
                    </g>
                    <path d="M2.40190051,18.0567316 C3.651773,17.2494398 5.25875193,16.7112453 7.31211388,18.0567316 C10.2582419,20.0301116 12.7579869,19.9404125 14.9006255,18.8640234 C16.9539874,17.7876343 19.0073494,16.442148 22.489137,18.2361298 C25.9709247,20.0301116 26.6851376,19.7610144 28.4706697,18.7743244 C30.2562018,17.7876343 33.5594363,15.8142543 36.7733941,17.9670325 C39.987352,20.0301116 41.2372245,20.4786071 43.0227566,19.1331207 C44.8082888,17.7876343 45.2546718,17.5185371 47.1294805,18.415528 C49.0042893,19.2228198 49.3613957,20.5683062 52.2182471,19.6713153 C55.0750985,18.7743244 59.0032692,18.1464307 62.9314399,18.5949262 C66.8596107,19.0434216 68.9129726,19.9404125 71.1448878,19.1331207 C73.376803,18.3258289 78.4655695,16.8906434 81.2331444,17.9670325 C83.9114426,18.9537225 85.2505917,19.1331207 87.3932302,18.6846253 C89.4465922,18.2361298 92.1248904,16.9803425 95.4281248,18.3258289 C98.7313593,19.6713153 100.338338,20.0301116 103.19519,18.7743244 C106.052041,17.5185371 107.212637,16.3524489 109.623105,17.7876343 C112.033574,19.2228198 114.533319,19.402218 116.408127,18.6846253 C118.282936,18.0567316 122.568213,17.7876343 126.139278,17.7876343 C129.799618,17.7876343 132.477917,18.0567316 132.031534,22.1828898 C131.585151,26.309048 131.049491,25.9502517 132.12081,28.0133308 C133.19213,30.0764099 132.477917,32.8570817 131.495874,34.6510635 C130.513831,36.4450454 130.603108,40.8403008 131.228044,42.0960881 C131.85298,43.3518754 134.352725,49.4514136 132.031534,51.8732891 C129.710342,54.2951645 126.764214,50.6175018 123.728809,50.1690063 C120.693405,49.7205109 118.907872,52.5908818 116.586681,51.9629882 C114.265489,51.4247936 112.837063,50.7072009 111.140808,51.9629882 C109.444552,53.2187754 108.283956,53.6672709 105.962764,52.77028 C103.641573,51.78359 99.3562955,49.5411127 94.8031886,51.78359 C90.2500816,53.9363682 88.1967197,53.8466691 85.6076981,52.5011827 C83.0186765,51.1556963 81.5009742,51.2453954 79.0012292,52.8599791 C76.5014842,54.4745627 75.3408883,53.6672709 72.8411433,52.6805809 C70.3413983,51.6938909 68.6451428,51.4247936 67.4845469,52.3217845 C66.323951,53.2187754 64.7169721,53.1290763 62.8421633,52.2320854 C60.9673546,51.3350945 59.9853119,51.6938909 58.2890564,52.3217845 C56.5928009,52.9496782 52.93246,54.8333591 50.3434384,53.5775718 C47.7544168,52.3217845 45.7010548,52.0526872 44.8082888,52.6805809 C44.0047993,53.3084745 41.0586713,54.3848636 39.0053093,53.4878727 C36.9519474,52.5908818 35.5235216,52.0526872 32.488117,52.1423863 C29.4527124,52.2320854 25.3459885,52.1423863 22.8462435,52.9496782 C20.3464985,53.75697 19.3644558,53.6672709 15.8826681,52.5908818 C12.3116039,51.5144927 5.25875193,53.9363682 2.58045372,52.9496782 C-0.0978444841,51.8732891 -0.633504125,48.6441218 0.705644977,46.3119454 C2.04479408,44.0694681 1.41985783,42.5445836 1.50913444,39.1360181 C1.59841105,35.7274526 1.95551747,30.3455071 1.50913444,27.7442335 C0.794921584,23.8871726 -1.43699359,20.5683062 2.40190051,18.0567316 L2.40190051,18.0567316 Z M8.47270977,39.1360181 C8.47270977,39.1360181 7.04428406,37.9699299 8.65126299,37.6111335 C10.2582419,37.2523372 12.4901571,35.1892581 14.4542424,34.112869 C16.4183278,33.0364799 19.7215622,31.5115953 24.7210522,31.6012944 C29.7205422,31.6909935 34.0058193,32.8570817 39.4516923,35.2789572 C44.8975654,37.7008326 47.3973104,37.072939 50.0756086,35.8171517 C52.7539068,34.5613644 57.4855669,30.3455071 64.0027592,30.7043035 C70.4306749,31.0630999 79.8939953,37.4317354 86.5897408,37.5214344 C93.2854863,37.6111335 96.8565506,30.4352062 105.069998,29.8970117 C113.283446,29.3588171 128.906852,33.3952762 127.478427,36.8935408 C126.139278,40.3918054 125.157235,36.8935408 119.264979,34.5613644 C113.461999,32.2291881 100.784721,31.0630999 97.3029336,34.8304617 C94.713912,37.6111335 91.4106775,39.1360181 87.214677,39.4051154 C81.2331444,39.7639117 76.769314,39.9433099 71.5912708,36.8935408 C68.2880364,35.0098599 65.3419083,32.9467808 63.0207166,32.9467808 C58.5568862,32.9467808 53.1110132,38.4184254 51.5040343,38.4184254 C49.8970554,38.4184254 47.1294805,39.046319 45.7010548,39.9433099 C44.1833525,40.8403008 41.3265011,40.033009 36.8626708,38.2390272 C32.3988404,36.3553463 20.0786687,32.6776835 15.6148383,35.9965499 C11.2402846,39.3154163 10.4367951,40.1227081 8.47270977,39.1360181 L8.47270977,39.1360181 Z M21.2392646,42.4548845 C21.2392646,41.9166899 21.6856476,40.4815045 24.1853926,40.1227081 C26.7744142,39.6742126 28.0242867,40.8403008 27.6671802,42.1857872 C27.3100738,43.5312736 25.2567119,43.8003708 24.096116,43.7106718 C22.9355201,43.6209727 21.4178178,43.4415745 21.2392646,42.4548845 L21.2392646,42.4548845 Z M60.1638651,39.046319 C62.0386739,37.5214344 65.6990148,38.059629 66.4132276,40.1227081 C67.0381639,42.1857872 63.5563762,42.9033799 62.1279505,42.6342827 C61.4137376,42.5445836 60.6102482,42.2754863 60.0745885,42.006389 C58.1997798,41.3784954 58.2890564,40.6609026 60.1638651,39.046319 L60.1638651,39.046319 Z M103.105913,39.3154163 C103.105913,39.3154163 102.570253,38.1493281 104.623615,36.8935408 C106.676977,35.6377535 109.712382,33.6643735 110.962254,36.3553463 C112.212127,39.046319 108.105403,39.2257172 105.873488,39.8536108 C103.641573,40.4815045 103.373743,39.8536108 103.105913,39.3154163 L103.105913,39.3154163 Z M87.3039536,28.1927289 C89.6251454,28.1927289 91.5892307,29.0897199 91.5892307,30.255808 C91.5892307,31.4218962 89.714422,32.3188871 87.3039536,32.3188871 C84.9827618,32.3188871 83.0186765,31.4218962 83.0186765,30.255808 C83.0186765,29.179419 84.8934852,28.1927289 87.3039536,28.1927289 L87.3039536,28.1927289 Z M45.2546718,31.4218962 C45.2546718,31.4218962 45.879608,32.8570817 48.2007998,30.6146044 C50.5219916,28.3721271 49.2721191,25.5017562 47.3973104,26.9369417 C45.6117782,28.3721271 44.6297355,30.4352062 45.2546718,31.4218962 L45.2546718,31.4218962 Z" id="Shape"></path>
                    <path d="M132.655738,60.852459 C132.655738,60.852459 132.655738,60.852459 132.655738,60.852459 C132.754098,60.852459 132.754098,60.852459 132.852459,60.852459 C133.147541,60.852459 133.344262,60.7540984 133.442623,60.6557377 C133.540984,60.557377 133.639344,60.3606557 133.639344,60.0655738 C133.639344,59.8688525 133.540984,59.7704918 133.442623,59.6721311 C133.344262,59.5737705 133.147541,59.4754098 133.04918,59.4754098 C132.95082,59.4754098 132.852459,59.4754098 132.754098,59.5737705 C132.655738,59.5737705 132.655738,59.6721311 132.655738,59.7704918 L132.655738,60.852459 L132.655738,60.852459 Z M131.47541,59.2786885 L133.147541,59.2786885 C133.540984,59.2786885 133.836066,59.3770492 134.131148,59.4754098 C134.327869,59.6721311 134.52459,59.8688525 134.52459,60.0655738 C134.52459,60.2622951 134.42623,60.4590164 134.229508,60.6557377 C134.032787,60.7540984 133.737705,60.852459 133.344262,60.9508197 C133.639344,61.0491803 133.836066,61.147541 133.934426,61.2459016 C134.131148,61.3442623 134.131148,61.5409836 134.229508,61.7377049 C134.229508,61.8360656 134.229508,61.9344262 134.229508,62.0327869 C134.229508,62.2295082 134.327869,62.3278689 134.42623,62.3278689 C134.52459,62.3278689 134.52459,62.3278689 134.622951,62.2295082 C134.622951,62.1311475 134.721311,62.0327869 134.721311,61.8360656 L134.721311,61.8360656 L134.918033,61.8360656 L134.918033,61.9344262 C134.918033,62.1311475 134.819672,62.3278689 134.721311,62.5245902 C134.622951,62.6229508 134.42623,62.7213115 134.229508,62.7213115 C134.131148,62.7213115 134.032787,62.7213115 133.934426,62.6229508 C133.836066,62.6229508 133.737705,62.5245902 133.737705,62.4262295 C133.639344,62.3278689 133.639344,62.1311475 133.639344,61.8360656 C133.639344,61.7377049 133.639344,61.6393443 133.639344,61.5409836 C133.639344,61.3442623 133.540984,61.147541 133.442623,61.0491803 C133.344262,60.9508197 133.147541,60.852459 132.95082,60.852459 L132.852459,60.852459 L132.852459,61.8360656 C132.852459,61.9344262 132.852459,62.0327869 132.95082,62.1311475 C133.04918,62.2295082 133.147541,62.2295082 133.245902,62.2295082 L133.245902,62.4262295 L131.672131,62.4262295 L131.672131,62.2295082 C131.868852,62.2295082 131.967213,62.2295082 131.967213,62.1311475 C132.065574,62.0327869 132.065574,61.9344262 132.065574,61.8360656 L132.065574,59.6721311 C132.065574,59.5737705 132.065574,59.4754098 131.967213,59.3770492 C131.868852,59.2786885 131.770492,59.2786885 131.672131,59.2786885 L131.672131,59.2786885 L131.47541,59.2786885 Z M133.04918,58.3934426 C132.754098,58.3934426 132.360656,58.4918033 132.065574,58.5901639 C131.770492,58.6885246 131.47541,58.8852459 131.278689,59.1803279 C131.081967,59.3770492 130.885246,59.6721311 130.688525,59.9672131 C130.590164,60.2622951 130.491803,60.6557377 130.491803,60.9508197 C130.491803,61.3442623 130.590164,61.6393443 130.688525,61.9344262 C130.786885,62.2295082 130.983607,62.5245902 131.278689,62.7213115 C131.57377,62.9180328 131.770492,63.1147541 132.065574,63.3114754 C132.360656,63.4098361 132.655738,63.5081967 133.04918,63.5081967 C133.442623,63.5081967 133.737705,63.4098361 134.032787,63.3114754 C134.327869,63.2131148 134.622951,63.0163934 134.819672,62.7213115 C135.016393,62.4262295 135.213115,62.2295082 135.409836,61.8360656 C135.508197,61.5409836 135.606557,61.2459016 135.606557,60.852459 C135.606557,60.4590164 135.508197,60.1639344 135.409836,59.8688525 C135.311475,59.5737705 135.114754,59.2786885 134.819672,59.0819672 C134.622951,58.8852459 134.327869,58.6885246 134.032787,58.4918033 C133.639344,58.4918033 133.344262,58.3934426 133.04918,58.3934426 L133.04918,58.3934426 Z M133.04918,58 C133.442623,58 133.836066,58.0983607 134.229508,58.1967213 C134.622951,58.3934426 134.918033,58.5901639 135.213115,58.8852459 C135.508197,59.1803279 135.704918,59.4754098 135.803279,59.8688525 C135.901639,60.2622951 136,60.6557377 136,61.0491803 C136,61.442623 135.901639,61.8360656 135.704918,62.2295082 C135.508197,62.6229508 135.311475,62.9180328 135.016393,63.2131148 C134.721311,63.5081967 134.42623,63.704918 134.131148,63.8032787 C133.737705,63.9016393 133.442623,64 133.04918,64 C132.754098,64 132.459016,64 132.163934,63.9016393 C131.868852,63.8032787 131.672131,63.704918 131.377049,63.5081967 C130.983607,63.2131148 130.590164,62.8196721 130.393443,62.4262295 C130.196721,62.0327869 130,61.5409836 130,61.0491803 C130,60.6557377 130.098361,60.2622951 130.196721,59.8688525 C130.393443,59.4754098 130.590164,59.1803279 130.885246,58.8852459 C131.180328,58.5901639 131.47541,58.3934426 131.868852,58.1967213 C132.262295,58.0983607 132.557377,58 133.04918,58 L133.04918,58 Z" id="Shape" fill-rule="nonzero"></path>
                    <g id="Group" transform="translate(2.000000, 0.000000)" fill-rule="nonzero">
                        <path d="M0.355555556,6.58666667 C0.355555556,2.94666667 2.84444444,0.606666667 6.22222222,0.606666667 C7.46666667,0.606666667 8.71111111,0.866666667 9.6,1.3 L9.33333333,3.29333333 C8.35555556,2.94666667 7.46666667,2.6 6.22222222,2.6 C3.91111111,2.6 2.75555556,4.24666667 2.75555556,6.58666667 C2.75555556,8.92666667 3.91111111,10.5733333 6.22222222,10.5733333 C7.46666667,10.5733333 8.35555556,10.3133333 9.33333333,9.88 L9.6,11.8733333 C8.71111111,12.3066667 7.46666667,12.5666667 6.22222222,12.5666667 C2.84444444,12.6533333 0.355555556,10.2266667 0.355555556,6.58666667 Z" id="Shape"></path>
                        <path d="M16.8888889,6.58666667 C16.8888889,2.94666667 19.3777778,0.606666667 22.7555556,0.606666667 C26.1333333,0.606666667 28.6222222,2.94666667 28.6222222,6.58666667 C28.6222222,10.2266667 26.1333333,12.5666667 22.7555556,12.5666667 C19.3777778,12.6533333 16.8888889,10.2266667 16.8888889,6.58666667 Z M19.2888889,6.58666667 C19.2888889,8.92666667 20.4444444,10.5733333 22.7555556,10.5733333 C25.0666667,10.5733333 26.2222222,8.92666667 26.2222222,6.58666667 C26.2222222,4.24666667 25.0666667,2.6 22.7555556,2.6 C20.4444444,2.68666667 19.2888889,4.33333333 19.2888889,6.58666667 Z" id="Shape"></path>
                        <polygon id="Shape" points="36.8888889 12.3933333 36.8888889 0.866666667 39.0222222 0.866666667 39.0222222 10.4 43.9111111 10.4 43.9111111 12.48 36.8888889 12.48"></polygon>
                        <path d="M51.3777778,7.45333333 L51.3777778,0.866666667 L53.5111111,0.866666667 L53.5111111,6.76 C53.5111111,8.92666667 53.9555556,10.66 56.2666667,10.66 C58.5777778,10.66 59.0222222,8.92666667 59.0222222,6.76 L59.0222222,0.866666667 L61.1555556,0.866666667 L61.1555556,7.45333333 C61.1555556,10.5733333 59.5555556,12.6533333 56.2666667,12.6533333 C52.9777778,12.6533333 51.3777778,10.5733333 51.3777778,7.45333333 Z" id="Shape"></path>
                        <polygon id="Shape" points="79.6444444 12.3933333 78.6666667 4.68 75.6444444 9.96666667 72.6222222 4.68 71.6444444 12.3933333 69.3333333 12.3933333 70.9333333 0.866666667 72.7111111 0.866666667 75.6444444 6.15333333 78.4888889 0.866666667 80.2666667 0.866666667 81.8666667 12.3933333"></polygon>
                        <path d="M90.2222222,12.3933333 L90.2222222,0.866666667 L93.4222222,0.866666667 C96.1777778,0.866666667 97.9555556,1.3 97.9555556,3.81333333 C97.9555556,4.85333333 97.6888889,5.63333333 96.9777778,6.24 C98.3111111,6.76 99.0222222,7.54 99.0222222,9.01333333 C99.0222222,11.7 96.8,12.3933333 94.7555556,12.3933333 L90.2222222,12.3933333 L90.2222222,12.3933333 Z M92.4444444,2.68666667 L92.4444444,5.54666667 L94.5777778,5.54666667 C95.2,5.54666667 96,5.28666667 96,4.16 C96,2.94666667 95.3777778,2.68666667 94.4,2.68666667 L92.4444444,2.68666667 Z M92.4444444,7.19333333 L92.4444444,10.66 L94.5777778,10.66 C96,10.66 96.8,10.2266667 96.8,8.92666667 C96.8,7.62666667 95.9111111,7.19333333 94.6666667,7.19333333 L92.4444444,7.19333333 Z" id="Shape"></path>
                        <polygon id="Shape" points="107.2 12.3933333 107.2 0.866666667 109.333333 0.866666667 109.333333 12.3933333"></polygon>
                        <path d="M125.333333,12.3933333 L124.355556,9.62 L120.444444,9.62 L119.466667,12.3933333 L117.244444,12.3933333 L121.422222,0.866666667 L123.466667,0.866666667 L127.644444,12.3933333 L125.333333,12.3933333 Z M122.311111,4.16 L121.066667,7.54 L123.555556,7.54 L122.311111,4.16 Z" id="Shape"></path>
                    </g>
                </g>
            </g>
        </g>
    </g>
</svg>